<mxfile host="app.diagrams.net" modified="2024-04-02T02:35:42.954Z" agent="Mozilla/5.0 (Windows NT 10.0; Win64; x64) AppleWebKit/537.36 (KHTML, like Gecko) Chrome/123.0.0.0 Safari/537.36" version="24.2.1" etag="QYZfLnzL2t_g7fNui0q4" type="github">
  <diagram name="페이지-1" id="gRwHZnbxGTEH6YNu1f2q">
    <mxGraphModel>
      <root>
        <mxCell id="0" />
        <mxCell id="1" parent="0" />
      </root>
    </mxGraphModel>
  </diagram>
</mxfile>
